<svg width="332" height="84" viewBox="0 0 332 84" fill="none" xmlns="http://www.w3.org/2000/svg">
<path d="M71.0453 49.8C32.7046 48.1537 0 83 0 83H332V0C332 0 283.692 47.7163 241.827 37.848C226.891 34.3273 226.626 26.8392 211.77 23.24C166.398 12.2484 176.999 75.2956 127.062 71.048C99.7272 68.7229 98.6876 50.9869 71.0453 49.8Z" fill="#663B06"/>
<path fill-rule="evenodd" clip-rule="evenodd" d="M273.499 37.1486C262.938 40.3168 251.642 41.5544 240.685 38.9388C232.905 37.082 228.957 34.1683 225.203 31.3984L225.201 31.3964C221.427 28.6114 217.848 25.9724 210.835 24.252C205.436 22.9274 201.049 22.7581 197.354 23.3565C193.622 23.961 190.358 25.3865 187.386 27.4844C181.406 31.7052 177.011 38.3447 172.388 45.3466L172.356 45.3951C167.785 52.3191 163.002 59.5649 156.218 64.8076C152.807 67.4434 148.834 69.6196 144.038 70.9947C139.208 72.3792 133.625 72.9276 127.124 72.3676C113.27 71.1743 105.945 66.1002 99.0811 61.3461C98.909 61.2268 98.7371 61.1078 98.5655 60.989C91.4437 56.0615 84.6551 51.5832 71.635 51.017C62.5731 50.623 53.7339 52.4077 45.4854 55.4053C37.2408 58.4016 29.7073 62.5672 23.3118 66.8149C16.9227 71.0583 11.7081 75.3574 8.08881 78.5985C6.28014 80.2181 4.87217 81.5715 3.91743 82.5188C3.44011 82.9924 3.0762 83.3644 2.83227 83.6173C2.71031 83.7438 2.61835 83.8404 2.55722 83.9051L2.48875 83.9779L2.47204 83.9958L2.46811 84C2.46811 84 2.46713 84.001 1.36174 83.7529L1.23325 83.7241C-0.000625014 83.4471 6.40249e-10 83.4464 6.40249e-10 83.4464L0.00632812 83.4396L0.0251118 83.4195L0.0978652 83.3422C0.161903 83.2744 0.256881 83.1746 0.381979 83.0449C0.632169 82.7855 1.00288 82.4066 1.48755 81.9257C2.45681 80.9639 3.88237 79.5938 5.71178 77.9555C9.36871 74.6808 14.6485 70.3267 21.1325 66.0202C27.61 61.7181 35.3281 57.4373 43.8742 54.3315C52.4164 51.2271 61.9068 49.254 71.8737 49.6873C86.2922 50.3143 93.7386 55.3464 100.776 60.2153C100.879 60.2871 100.983 60.3589 101.087 60.4306C108.116 65.2957 114.848 69.9551 127.591 71.0527C133.482 71.5602 138.413 71.0622 142.672 69.8413C146.964 68.611 150.653 66.623 153.93 64.0905C160.506 59.009 165.194 51.9241 169.809 44.9341L169.874 44.8358C174.424 37.9425 178.927 31.121 185.161 26.721C188.31 24.498 192 22.8184 196.506 22.0886C201.049 21.3527 206.186 21.6198 212.046 23.0573C219.709 24.9373 223.634 27.8341 227.353 30.5791L227.457 30.6557C231.227 33.4379 234.823 36.0561 241.868 37.7378C251.689 40.082 261.97 39.0438 272.088 36.0088C282.224 32.9681 291.995 27.9748 300.548 22.6235C309.087 17.2806 316.344 11.6235 321.471 7.2974C324.033 5.13551 326.059 3.30865 327.444 2.02321C328.137 1.38054 328.669 0.873361 329.027 0.527473C329.206 0.354534 329.342 0.22193 329.432 0.132888L329.534 0.0324073L329.559 0.00743077L329.565 0.00139109L329.567 1.22615e-09C329.567 1.22615e-09 329.567 -0.000298977 330.784 0.29436C332.001 0.589018 332 0.589815 332 0.589815L331.998 0.591707L331.964 0.625763L331.858 0.730406C331.764 0.822261 331.626 0.957772 331.444 1.1337C331.079 1.48556 330.54 1.99915 329.841 2.64861C328.441 3.94742 326.397 5.79021 323.814 7.96989C318.651 12.327 311.323 18.0407 302.68 23.4487C294.05 28.8483 284.042 33.986 273.499 37.1486Z" fill="#CD8E3F"/>
</svg>
