<svg width="54" height="51" viewBox="0 0 54 51" fill="none" xmlns="http://www.w3.org/2000/svg">
<g id="Group">
<g id="Group_2">
<g id="Group_3">
<path id="Vector" d="M48.5478 35.6217H46.0079C46.2074 35.5095 46.3936 35.3847 46.5664 35.2475C48.0824 34.1126 49.0531 32.3665 49.0531 30.3959C49.0531 28.8742 48.468 27.4774 47.4973 26.3923C46.2872 25.0453 44.4787 24.1847 42.4441 24.1847C38.7871 24.1847 35.835 26.966 35.835 30.3834C35.835 32.5785 37.0451 34.4992 38.8802 35.6092H36.3403C33.3217 35.6092 30.8882 37.9041 30.8882 40.7228V50.9875H35.2898V44.5892C35.2898 44.1028 35.702 43.7162 36.2206 43.7162C36.7393 43.7162 37.1515 44.1028 37.1515 44.5892V50.9999H47.7499V44.5892C47.7499 44.1028 48.1622 43.7162 48.6808 43.7162C49.1994 43.7162 49.6116 44.1028 49.6116 44.5892V50.9999H54V40.7353C54 37.9041 51.5664 35.6217 48.5478 35.6217Z" fill="white"/>
</g>
<path id="Vector_2" d="M34.8643 33.9755C34.2659 32.8779 33.9467 31.6432 33.9467 30.3585C33.9467 25.9808 37.7499 22.4137 42.4175 22.4137C44.359 22.4137 46.2207 23.0373 47.6968 24.1474L48.867 12.9972C48.9601 12.1366 48.2287 11.3883 47.3111 11.3883H39.2393C38.4946 11.3883 37.8563 11.8747 37.7101 12.5607L36.7659 16.9384C36.6196 17.6244 35.9813 18.1108 35.2366 18.1108H1.56632C0.622166 18.1108 -0.0959215 18.8841 0.0104618 19.7572L3.24186 44.527C3.33494 45.2628 3.99984 45.8116 4.78441 45.8116H28.9733V40.698C28.9866 37.3804 31.5132 34.6116 34.8643 33.9755ZM25.9946 34.9982H21.7393V38.9893H15.0371V34.9982H10.7818V28.7247H15.0371V24.7336H21.7393V28.7247H25.9946V34.9982Z" fill="#1B3954"/>
<g id="Group_4">
<g id="Group_5">
<path id="Vector_3" d="M35.8749 12.2239C36.1941 10.7272 37.6037 9.64216 39.226 9.64216H43.7872V0.263062H5.15674V9.81677H14.3323C14.8509 9.81677 15.2632 10.2034 15.2632 10.6898C15.2632 11.1762 14.8509 11.5629 14.3323 11.5629H5.15674V16.3772H34.984L35.8749 12.2239ZM19.9706 10.8644C19.9573 10.9143 19.944 10.9767 19.9174 11.0266C19.8908 11.0765 19.8642 11.1264 19.8376 11.1762C19.7977 11.2261 19.7711 11.2635 19.718 11.3134C19.6781 11.3509 19.6249 11.3883 19.5717 11.4257C19.5185 11.4631 19.4653 11.488 19.4121 11.5005C19.3589 11.5255 19.2924 11.5379 19.2392 11.5504C19.186 11.5629 19.1195 11.5629 19.0531 11.5629C18.8137 11.5629 18.5743 11.4631 18.4015 11.301C18.2286 11.1388 18.1222 10.9143 18.1222 10.6898C18.1222 10.4653 18.2286 10.2408 18.4015 10.0662C18.4414 10.0288 18.4945 9.99139 18.5477 9.95397C18.6009 9.91655 18.6541 9.89161 18.7073 9.87914C18.7605 9.85419 18.827 9.84172 18.8802 9.82925C18.9999 9.8043 19.1196 9.8043 19.2392 9.82925C19.2924 9.84172 19.3589 9.85419 19.4121 9.87914C19.4653 9.90408 19.5185 9.92902 19.5717 9.95397C19.6249 9.99139 19.6781 10.0163 19.718 10.0662C19.8908 10.2284 19.9839 10.4529 19.9839 10.6898C19.9839 10.7397 19.9839 10.8021 19.9706 10.8644Z" fill="white"/>
</g>
</g>
</g>
</g>
</svg>
