<svg width="24" height="25" viewBox="0 0 24 25" fill="none" xmlns="http://www.w3.org/2000/svg">
<g clip-path="url(#clip0_1_717)">
<path d="M23.9873 12.7245C23.9873 11.7413 23.9057 11.0238 23.729 10.2797H12.239V14.7176H18.9834C18.8475 15.8205 18.1132 17.4815 16.4815 18.5976L16.4586 18.7462L20.0915 21.4964L20.3432 21.5209C22.6547 19.4347 23.9873 16.3653 23.9873 12.7245Z" fill="#4285F4"/>
<path d="M12.239 24.4176C15.5432 24.4176 18.3171 23.3545 20.3432 21.5209L16.4815 18.5976C15.4481 19.3018 14.0611 19.7934 12.239 19.7934C9.00285 19.7934 6.25616 17.7074 5.27704 14.824L5.13353 14.8359L1.35598 17.6927L1.30658 17.8269C3.319 21.7334 7.45266 24.4176 12.239 24.4176Z" fill="#34A853"/>
<path d="M5.27705 14.8239C5.0187 14.0798 4.86919 13.2825 4.86919 12.4587C4.86919 11.6349 5.0187 10.8376 5.26346 10.0935L5.25662 9.93507L1.43173 7.03235L1.30659 7.09052C0.477171 8.71162 0.00125122 10.532 0.00125122 12.4587C0.00125122 14.3854 0.477171 16.2058 1.30659 17.8269L5.27705 14.8239Z" fill="#FBBC05"/>
<path d="M12.239 5.12403C14.537 5.12403 16.0871 6.09402 16.971 6.90461L20.4247 3.60928C18.3036 1.6826 15.5432 0.5 12.239 0.5C7.45266 0.5 3.319 3.18406 1.30658 7.09056L5.26345 10.0936C6.25616 7.2102 9.00285 5.12403 12.239 5.12403Z" fill="#EB4335"/>
</g>
<defs>
<clipPath id="clip0_1_717">
<rect width="24" height="24" fill="white" transform="translate(0 0.5)"/>
</clipPath>
</defs>
</svg>
