<svg width="23" height="31" viewBox="0 0 23 31" fill="none" xmlns="http://www.w3.org/2000/svg">
<path id="Vector" d="M23 3.94431V5.26549H16.3469V3.94431H23ZM20.21 6.82369H16.3469V8.14487H20.21V6.82369ZM16.3469 11.0242H23V9.70317H16.3469V11.0242ZM20.21 12.5833H16.3469V13.9044H20.21V12.5833ZM16.3469 16.7838H23V15.4626H16.3469V16.7838ZM17.384 24.3117C17.384 27.9996 13.4848 31 8.69199 31C3.89919 31 0 27.9996 0 24.3117C0 21.9218 1.63108 19.7497 4.2923 18.5482V3.38548C4.29243 1.51863 6.266 0 8.69199 0C11.118 0 13.0917 1.51863 13.0917 3.38548V18.5483C15.7529 19.7485 17.384 21.9211 17.384 24.3117ZM15.667 24.3117C15.667 22.2838 14.2025 20.4506 11.8442 19.5292L11.3747 19.3455V3.3861C11.3747 2.24726 10.1712 1.32179 8.69199 1.32179C7.21291 1.32179 6.00927 2.24726 6.00927 3.3861V19.3455L5.53975 19.5292C3.18149 20.4513 1.71697 22.2844 1.71697 24.3117C1.71697 27.271 4.8461 29.6788 8.69199 29.6788C12.5379 29.6788 15.667 27.271 15.667 24.3117ZM14.2368 24.3117C14.2368 26.664 11.7498 28.5777 8.69199 28.5777C5.63499 28.5777 3.14796 26.664 3.14796 24.3117C3.14796 22.3835 4.84089 20.6904 7.26514 20.1944L7.58358 20.129V5.44444H9.80106V20.1283L10.1195 20.1944C12.5448 20.6904 14.2368 22.3842 14.2368 24.3117ZM8.96675 21.468C8.83451 21.0161 8.24398 20.7189 7.64209 20.8245C5.54055 21.1905 4.07257 22.6048 4.07257 24.2642C4.07257 24.7338 4.5696 25.1164 5.18004 25.1164C5.79047 25.1164 6.28751 24.7339 6.28751 24.2642C6.28751 23.4206 7.06184 22.6729 8.13057 22.4873C8.72458 22.3821 9.10059 21.925 8.96675 21.468Z" fill="white"/>
</svg>
