<svg width="340" height="49" viewBox="0 0 340 49" fill="none" xmlns="http://www.w3.org/2000/svg">
<g clip-path="url(#clip0_1_680)">
<path d="M39.7411 38.8581H33.4887V0H39.7411V13.5359C42.1514 11.3949 45.2322 10.2513 48.3983 10.3224C54.4198 10.3224 58.9456 14.9898 58.9456 20.2136V38.8581H52.6932V22.7453C52.6932 18.7798 50.3317 16.3684 46.5274 16.3684C43.1607 16.3684 39.7363 18.9804 39.7363 22.5448L39.7411 38.8581Z" fill="white"/>
<path d="M85.4509 38.8581V34.642C83.5704 37.5998 79.8382 39.5149 75.7693 39.5149C68.3001 39.5149 62.572 33.1881 62.572 24.9763C62.572 16.7645 68.4011 10.3676 75.9136 10.3676C79.4294 10.3676 82.897 11.8715 85.0517 14.684V11.1747H91.3041V38.8581H85.4509ZM82.7239 18.83C81.9981 18.0227 81.1159 17.3857 80.1357 16.9613C79.1555 16.5369 78.0999 16.3348 77.039 16.3685C75.9655 16.3363 74.8974 16.5386 73.9034 16.9626C72.9094 17.3865 72.0115 18.0226 71.2676 18.83C70.5096 19.6157 69.9138 20.5547 69.5168 21.5893C69.1198 22.6239 68.93 23.7321 68.959 24.846C68.9287 25.9765 69.1176 27.1017 69.5143 28.1544C69.9109 29.207 70.5073 30.1654 71.2676 30.9722C72.0115 31.7796 72.9094 32.4157 73.9034 32.8397C74.8974 33.2636 75.9655 33.466 77.039 33.4338C78.0995 33.4681 79.1549 33.2668 80.1351 32.8432C81.1152 32.4197 81.9977 31.7836 82.7239 30.9772C83.4689 30.1612 84.0524 29.2001 84.4411 28.149C84.8298 27.0978 85.016 25.9772 84.9892 24.851C85.0154 23.7407 84.8285 22.6361 84.4395 21.6022C84.0505 20.5682 83.4672 19.6257 82.7239 18.83Z" fill="white"/>
<path d="M102.885 38.8581H96.633V11.1446H102.51V15.0399C103.809 12.2325 106.651 10.8739 109.109 10.5279L111.663 10.177L112.543 15.8671L109.941 16.2682C106.093 16.8698 102.909 19.6822 102.909 25.3523L102.885 38.8581Z" fill="white"/>
<path d="M122.201 38.858H115.948V11.1445H121.825V13.8567C124.086 11.4954 126.928 10.3474 130.396 10.3474C135.023 10.2973 137.721 12.5081 139.212 14.8594C141.669 11.7962 145.281 10.3474 149.134 10.3474C158.142 10.3474 159.681 18.2283 159.681 20.2386V38.858H153.424V22.7453C153.424 18.7798 151.067 16.3684 147.263 16.3684C145.628 16.3625 144.048 16.9875 142.829 18.123C142.216 18.6698 141.727 19.3512 141.397 20.1183C141.067 20.8854 140.904 21.7192 140.919 22.5598V38.858H134.667V22.7453C134.667 18.7798 132.305 16.3684 128.501 16.3684C126.866 16.3625 125.286 16.9875 124.067 18.123C123.462 18.6715 122.98 19.352 122.656 20.1161C122.332 20.8803 122.173 21.7094 122.191 22.5448L122.201 38.858Z" fill="white"/>
<path d="M186.403 38.8581V34.642C184.527 37.6048 180.771 39.5149 176.721 39.5149C169.257 39.5149 163.524 33.1881 163.524 24.9763C163.524 16.7645 169.353 10.3676 176.866 10.3676C180.381 10.3676 183.854 11.8715 186.004 14.684V11.1747H192.256V38.8581H186.403ZM183.657 18.83C182.932 18.0231 182.05 17.3863 181.071 16.9619C180.092 16.5375 179.037 16.3352 177.977 16.3685C176.903 16.3363 175.835 16.5386 174.841 16.9626C173.847 17.3865 172.949 18.0226 172.205 18.83C171.446 19.6148 170.849 20.5535 170.451 21.5882C170.053 22.6229 169.863 23.7316 169.892 24.846C169.858 25.976 170.043 27.1016 170.436 28.1552C170.829 29.2088 171.423 30.1687 172.181 30.9772C172.925 31.7846 173.823 32.4207 174.817 32.8447C175.811 33.2686 176.879 33.471 177.953 33.4388C179.013 33.472 180.067 33.2698 181.047 32.8454C182.026 32.4209 182.908 31.7841 183.633 30.9772C184.379 30.1618 184.963 29.2009 185.351 28.1496C185.74 27.0983 185.926 25.9773 185.898 24.851C185.928 23.7423 185.746 22.6385 185.361 21.6045C184.976 20.5705 184.397 19.6271 183.657 18.83Z" fill="white"/>
<path d="M203.741 38.8581H197.489V11.1445H203.361V13.9069C205.723 11.4955 208.95 10.3424 212.418 10.3424C218.439 10.3424 222.965 15.0098 222.965 20.2337V38.8581H216.713V22.7453C216.713 18.7798 214.356 16.3684 210.547 16.3684C207.18 16.3684 203.756 18.9803 203.756 22.5448L203.741 38.8581Z" fill="white"/>
<path d="M249.451 38.8581V34.642C247.575 37.6048 243.819 39.5149 239.769 39.5149C232.305 39.5149 226.572 33.1881 226.572 24.9763C226.572 16.7645 232.401 10.3676 239.914 10.3676C243.429 10.3676 246.897 11.8715 249.052 14.684V11.1747H255.304V38.8581H249.451ZM246.729 18.83C246.004 18.0231 245.122 17.3863 244.143 16.9619C243.164 16.5375 242.109 16.3352 241.049 16.3685C239.975 16.3363 238.907 16.5386 237.913 16.9626C236.919 17.3865 236.021 18.0226 235.277 18.83C234.518 19.6148 233.921 20.5535 233.523 21.5882C233.125 22.6229 232.935 23.7316 232.964 24.846C232.933 25.9769 233.123 27.1026 233.52 28.1554C233.918 29.2082 234.515 30.1663 235.277 30.9722C236.021 31.7796 236.919 32.4157 237.913 32.8397C238.907 33.2636 239.975 33.466 241.049 33.4338C242.109 33.4677 243.163 33.2662 244.142 32.8426C245.122 32.4191 246.003 31.7832 246.729 30.9772C247.475 30.1618 248.059 29.2009 248.448 28.1496C248.836 27.0983 249.022 25.9773 248.994 24.851C249.021 23.7406 248.835 22.6357 248.446 21.6016C248.057 20.5675 247.473 19.6251 246.729 18.83Z" fill="white"/>
<path d="M288.899 35.5944C288.899 43.1144 282.589 49 274.307 49C269.728 49 264.914 47.3957 261.831 44.9342L265.01 39.9209C267.564 41.9763 271.262 42.984 274.21 42.984C276.461 43.0479 278.658 42.2608 280.395 40.7681C281.185 40.1375 281.823 39.3232 282.257 38.39C282.691 37.4569 282.91 36.4309 282.896 35.3939V34.3912C281.117 36.953 277.361 38.5071 273.359 38.5071C265.895 38.5071 260.162 32.3859 260.162 24.4699C260.162 16.5539 265.967 10.3424 273.484 10.3424C277.096 10.3424 280.521 11.9015 282.622 14.8544V11.1445H288.875L288.899 35.5944ZM280.28 18.7297C279.535 17.9556 278.647 17.3472 277.67 16.9413C276.693 16.5354 275.647 16.3405 274.595 16.3684C273.534 16.3322 272.477 16.5176 271.486 16.9137C270.495 17.3097 269.59 17.9084 268.824 18.6745C268.071 19.4143 267.477 20.3108 267.078 21.3058C266.679 22.3007 266.486 23.3719 266.51 24.4498C266.491 25.5122 266.687 26.5668 267.086 27.5448C267.485 28.5227 268.077 29.4019 268.824 30.1249C269.589 30.8917 270.494 31.4911 271.486 31.888C272.477 32.2849 273.534 32.4712 274.595 32.436C276.694 32.4963 278.732 31.7035 280.28 30.2252C281.031 29.4763 281.621 28.5698 282.011 27.5655C282.4 26.5613 282.581 25.4822 282.541 24.3997C282.553 23.3441 282.359 22.2971 281.97 21.3223C281.581 20.3474 281.006 19.4653 280.28 18.7297Z" fill="white"/>
<path d="M319.386 32.6366C318.173 34.7702 316.381 36.4815 314.235 37.5546C311.916 38.8195 309.336 39.4751 306.718 39.4647C299.446 39.4647 292.126 34.7923 292.126 24.8509C292.126 16.5689 298.378 10.3424 306.285 10.3424C314.192 10.3424 319.964 16.1679 319.964 25.1517V27.7135H298.869C299.879 31.278 303.347 33.4387 307.007 33.4387C310.527 33.4387 313.028 31.6289 314.702 29.0721L319.386 32.6366ZM298.869 22.1387H313.75C312.98 18.7297 310.041 16.3684 306.381 16.3684C302.721 16.3684 299.687 18.7297 298.869 22.1387Z" fill="white"/>
<path d="M330.367 38.8581H324.114V11.1446H329.982V15.0399C331.285 12.2325 334.128 10.8739 336.58 10.5279L339.134 10.177L340 15.8521L337.403 16.2531C333.555 16.8547 330.367 19.6672 330.367 25.3372V38.8581Z" fill="white"/>
<path d="M15.7993 1.96021H0V38.8581H6.45439V28.9167H16.4678C25.125 28.9167 30.5357 22.595 30.5357 15.5162C30.5357 8.13659 24.8556 1.96021 15.7993 1.96021ZM22.3114 22.4345H6.43996V6.73788H9.80663L12.5048 10.187H22.3162L22.3114 22.4345ZM22.3114 9.59045C22.3451 9.62554 13.005 9.59045 13.005 9.59045L12.1248 8.37222H22.3114C22.3114 8.37222 22.2777 9.55536 22.3114 9.59045Z" fill="white"/>
</g>
<defs>
<clipPath id="clip0_1_680">
<rect width="340" height="49" fill="white"/>
</clipPath>
</defs>
</svg>
