<svg width="34" height="38" viewBox="0 0 34 38" fill="none" xmlns="http://www.w3.org/2000/svg">
<path d="M33.9257 0.774377H33.8513H33.6036L32.563 0.7496L30.8782 0.724823C29.1687 0.700046 27.4839 0.675268 25.7743 0.625714C18.9857 0.526605 12.1723 0.477051 5.35888 0.477051H1.32038H0.552321H0.354113H0.304561H0.279785V0.501828L0.329337 0.576159L0.527546 0.92304L1.2956 2.26101L1.915 3.30165L2.3362 3.97064C2.90605 4.86262 3.50067 5.77937 4.21918 6.59702C4.93768 7.43945 5.78007 8.20754 6.74634 8.80219C7.7126 9.39684 8.77797 9.84283 9.86812 10.0906C10.7353 10.2888 11.6024 10.3632 12.4448 10.4127C12.4448 10.6357 12.4448 10.8339 12.4448 11.0074C12.4448 11.4038 12.4696 11.7755 12.4696 12.1719V13.3612V14.3523C11.5281 14.7487 10.6362 15.269 9.86812 15.9628C8.62932 17.0282 7.66305 18.4405 7.14275 19.9767C6.59768 21.5377 6.4738 23.173 6.62246 24.7835C6.79589 26.394 7.34096 28.0045 8.28245 29.3673C8.55499 29.7885 8.90185 30.1601 9.22394 30.5318C9.59558 30.8787 9.94245 31.2256 10.3636 31.5229C10.7105 31.7954 11.0821 32.0184 11.4538 32.2414C11.2308 32.7122 10.983 33.1582 10.6857 33.6042C10.6114 33.7281 10.5371 33.8272 10.4627 33.9511C10.3636 34.0749 10.3389 34.1245 10.2645 34.2236C10.1159 34.397 9.91767 34.5705 9.66991 34.7935L9.57081 34.8926L9.44693 35.0165C9.3726 35.1156 9.27349 35.2395 9.19917 35.3386C9.05051 35.5863 8.95141 35.8341 8.92663 36.1067C8.90185 36.3792 9.02573 36.6518 9.14961 36.8748C9.22394 36.9739 9.29827 37.0978 9.42215 37.1969C9.52125 37.296 9.64513 37.3951 9.74424 37.4694C10.215 37.7667 10.5866 37.8411 10.9087 37.8906C11.2556 37.965 11.5777 37.9897 11.8998 37.9897C12.5439 38.0145 13.1386 37.9897 13.7332 37.965C14.9224 37.8906 16.1117 37.7667 17.2514 37.6676C17.5239 37.6429 17.8212 37.6181 18.069 37.6181C18.3168 37.6181 18.6388 37.6181 18.9362 37.6181H20.6953C22.9251 37.6181 24.709 37.2464 24.709 36.7757C24.709 36.3049 22.9003 35.9332 20.6953 35.9332H18.9362C18.6388 35.9332 18.3663 35.9332 18.0442 35.9332C17.7221 35.9332 17.4248 35.958 17.1275 35.9828C15.9383 36.0819 14.7986 36.2306 13.6589 36.2801C13.089 36.3049 12.5192 36.3297 11.9989 36.3049C11.7263 36.2801 11.4786 36.2801 11.2308 36.2306C11.1069 36.2058 11.0078 36.181 10.9087 36.1562L10.8344 36.1315C10.8096 36.1315 10.8096 36.1314 10.8096 36.1067L10.7601 36.0819L10.8592 35.9828C11.0574 35.8093 11.2804 35.5863 11.5281 35.3386C11.6272 35.2147 11.8007 35.0165 11.875 34.9174C11.9741 34.7935 12.0484 34.6696 12.1475 34.5457C12.4696 34.0502 12.7669 33.5298 13.0395 32.96C13.4854 33.1582 13.9562 33.2573 14.4269 33.406C14.8977 33.5051 15.3932 33.6289 15.8887 33.6785C16.855 33.8024 17.846 33.8024 18.8371 33.7033C19.8033 33.6042 20.7696 33.3812 21.7111 33.0343C21.9836 32.9352 22.2314 32.8361 22.4791 32.7122C22.603 32.9104 22.7269 33.1086 22.8508 33.3068C23.4454 34.2484 24.0648 35.2147 24.5355 36.181C24.6346 36.3792 24.6842 36.5279 24.7338 36.627C24.7338 36.6518 24.7833 36.6518 24.7833 36.6765C24.7833 36.7013 24.7585 36.7261 24.7585 36.7509C24.7585 36.7757 24.7833 36.8004 24.8329 36.8004C24.8576 36.8004 24.9072 36.8004 24.932 36.7509C24.9815 36.7261 24.9815 36.6765 25.0063 36.627C25.0558 36.4536 25.0063 36.2306 24.9072 35.9828C24.4612 34.9174 23.8914 33.9511 23.3463 32.96C23.2472 32.7617 23.1233 32.5883 23.0242 32.3901C23.4702 32.1423 23.8914 31.8945 24.2878 31.5972C25.923 30.4327 27.1618 28.6983 27.7812 26.7904C28.0537 25.8737 28.1033 25.0065 27.9794 24.3871C27.8555 23.7676 27.6573 23.4207 27.4343 23.4207C27.2114 23.4207 26.9636 23.7676 26.7902 24.2879C26.592 24.8083 26.3937 25.502 26.1708 26.2701C25.6505 27.8559 24.6594 29.2434 23.2967 30.2097C22.6278 30.6805 21.8845 31.1017 21.0917 31.3742C20.2988 31.6468 19.4812 31.8698 18.6141 31.9441C17.7717 32.0432 16.9045 32.0432 16.0621 31.9193C15.6409 31.8945 15.2197 31.7707 14.7986 31.6963C14.4021 31.5724 13.9809 31.4733 13.5845 31.2999C13.1881 31.176 12.8165 30.953 12.4448 30.7796C12.098 30.5566 11.7263 30.3584 11.4042 30.0858C11.0574 29.838 10.7848 29.5407 10.4627 29.2682C10.1902 28.9461 9.89289 28.6487 9.69469 28.3019C8.92663 27.1869 8.45588 25.8737 8.30723 24.5109C8.15857 23.1234 8.25768 21.7111 8.67887 20.3979C9.10006 19.1095 9.86812 17.9202 10.8839 17.0034C11.8998 16.0619 13.1633 15.4177 14.5012 15.0213C15.8391 14.6001 17.3009 14.4762 18.7132 14.6248C20.1254 14.7487 21.5376 15.1452 22.7764 15.8389C24.0152 16.5327 25.1302 17.499 25.8735 18.7131C26.6415 19.9272 27.0627 21.3642 27.1866 22.8013C27.2114 23.173 27.3352 23.3712 27.4343 23.3712C27.5334 23.3712 27.6325 23.173 27.6325 22.7765C27.6078 21.2651 27.2609 19.7042 26.5176 18.3414C25.7743 16.9539 24.6346 15.8141 23.2967 14.9717C23.0242 14.7983 22.7269 14.6248 22.4048 14.4762C22.4544 14.0302 22.5039 13.5842 22.5287 13.1382C22.5782 12.5683 22.603 11.9737 22.5782 11.379C22.5782 11.2304 22.5782 11.0817 22.5535 10.9083C22.5287 10.7596 22.5287 10.5862 22.5039 10.4375L22.4544 10.1897C22.4296 10.1154 22.4048 10.0163 22.38 9.91716C22.7517 9.7685 22.9747 9.61984 22.9747 9.4464C22.9747 9.1243 22.2561 8.87652 21.2156 8.72786C20.9678 8.65353 20.7448 8.60397 20.5466 8.5792C20.1006 8.50486 19.6794 8.50486 19.283 8.50486C18.4654 8.50486 17.6726 8.55442 16.8797 8.5792C16.4833 8.60397 16.0869 8.62875 15.7153 8.65353H14.5508C14.4517 8.65353 14.3526 8.65353 14.2535 8.6783C13.9066 8.6783 13.5598 8.67831 13.2129 8.65353C12.1723 8.62875 11.2308 8.55442 10.2893 8.3562C9.34782 8.15798 8.48066 7.78633 7.68783 7.29078C6.10216 6.29969 4.88813 4.71395 3.82276 2.97955L3.42634 2.33534L3.20336 2.1619H5.38365C12.1971 2.1619 18.9857 2.11235 25.7991 2.01324C27.5087 1.98846 29.1934 1.96368 30.903 1.91413L31.5472 1.88935L31.7702 1.86457C31.894 1.86457 32.1666 1.79024 32.0179 1.96368L31.9188 2.1619L31.8693 2.26101L31.7454 2.484C31.5472 2.85566 31.349 3.22732 31.126 3.5742C30.7048 4.29274 30.2588 4.9865 29.7633 5.65549C29.2678 6.32447 28.6979 6.91912 28.0785 7.43944C27.7812 7.71199 27.4343 7.93499 27.0875 8.15798C26.7406 8.3562 26.3937 8.55442 25.9973 8.70308C25.6257 8.87652 25.2293 8.97563 24.8329 9.09952C24.6346 9.14907 24.4364 9.17385 24.2382 9.2234L23.9409 9.27296L23.6436 9.29774C23.2224 9.32251 22.9994 9.4464 22.9994 9.54551C22.9994 9.64462 23.2224 9.74372 23.6684 9.71895H23.9905L24.3126 9.66939C24.5355 9.64462 24.7338 9.61984 24.9567 9.59506C25.3779 9.49595 25.8239 9.42162 26.2203 9.24818C26.6415 9.12429 27.0379 8.9013 27.4343 8.72786C27.806 8.50486 28.2024 8.28187 28.5493 8.00932C29.243 7.489 29.8872 6.86957 30.4322 6.20058C31.0021 5.5316 31.4976 4.83784 31.9684 4.1193C32.2161 3.77242 32.4391 3.40076 32.6621 3.0291L33.1081 2.26101L33.6284 1.34425L33.9009 0.873486L33.9752 0.7496L34 0.724823C33.9504 0.7496 33.9504 0.774377 33.9257 0.774377ZM20.943 10.5118C20.9678 10.5614 20.9678 10.5862 20.9926 10.6605L21.0173 10.8339C21.0421 10.933 21.0421 11.0817 21.0669 11.2056C21.0917 11.3295 21.0917 11.4534 21.0917 11.602C21.1164 12.1223 21.1164 12.6674 21.0917 13.2373C21.0669 13.5346 21.0669 13.8072 21.0421 14.1045C20.3236 13.8567 19.5803 13.6833 18.8371 13.5842C17.2762 13.3612 15.6905 13.4355 14.1544 13.8567V13.4355V12.2462C14.1544 11.8498 14.1296 11.4286 14.1296 11.0321C14.1296 10.8587 14.1296 10.6605 14.1296 10.5118C15.9135 10.5366 17.6726 10.5118 19.4317 10.487C19.9768 10.487 20.4723 10.4375 20.9182 10.3879C20.8935 10.3879 20.9182 10.4375 20.943 10.5118Z" fill="white"/>
<path d="M23.8419 23.4951C23.6189 23.4951 23.3712 23.7181 23.2225 24.0402C23.0491 24.3623 22.8757 24.7835 22.7518 25.2543C22.4297 26.2206 21.8351 27.063 20.9927 27.6577C20.1751 28.2523 19.1593 28.624 18.0939 28.7231C17.5736 28.7726 17.0285 28.7726 16.5082 28.7231C15.9879 28.6735 15.4676 28.5496 14.9969 28.3514C14.7491 28.2771 14.5261 28.1284 14.3032 28.0293C14.0802 27.8807 13.8572 27.7816 13.659 27.6081C13.436 27.4594 13.2873 27.286 13.0891 27.1126C12.9405 26.9143 12.7423 26.7409 12.6184 26.5179C12.1476 25.8489 11.8751 25.0561 11.776 24.1889C11.6769 23.3464 11.7512 22.4545 11.999 21.6616C12.2467 20.8687 12.7175 20.1502 13.3369 19.5803C13.9563 18.9856 14.7243 18.5892 15.5667 18.3167C16.4091 18.0441 17.3011 17.9698 18.193 18.0441C19.0849 18.1184 19.9769 18.3414 20.7449 18.7627C21.5378 19.1839 22.2315 19.7785 22.727 20.5466C23.2225 21.3147 23.5198 22.2067 23.6189 23.1234C23.6437 23.3712 23.7428 23.5199 23.8419 23.4951C23.941 23.4951 24.0401 23.3712 24.0401 23.0987C24.0401 22.1076 23.8419 21.0917 23.3464 20.1749C22.8757 19.2582 22.1076 18.4901 21.2404 17.9202C20.3733 17.3503 19.3575 17.0035 18.3169 16.8548C17.2763 16.7061 16.2109 16.7309 15.1703 17.0035C14.1545 17.276 13.1387 17.722 12.2963 18.4405C11.4539 19.1591 10.8097 20.1006 10.4381 21.1413C10.0664 22.1819 9.99212 23.2969 10.0912 24.3623C10.1903 25.4525 10.562 26.5427 11.2061 27.4594C11.3796 27.7568 11.6273 28.0045 11.8503 28.2523C12.0981 28.4753 12.3458 28.7231 12.6184 28.9213C12.8909 29.1443 13.1882 29.293 13.4608 29.4664C13.7581 29.6151 14.0554 29.7637 14.3775 29.8876C14.9969 30.1354 15.6411 30.284 16.31 30.3584C16.9542 30.4575 17.6231 30.4327 18.2673 30.3832C19.5805 30.2345 20.8688 29.7885 21.959 28.9956C23.0739 28.2028 23.9163 27.0382 24.3375 25.7498C24.5357 25.1304 24.5109 24.5357 24.4118 24.1145C24.2879 23.7429 24.0897 23.4951 23.8419 23.4951Z" fill="white"/>
<path d="M17.1526 19.283C16.7314 20.0511 16.5332 20.8192 16.5332 21.5873V22.9996C16.5332 23.0987 16.9048 23.1978 17.3756 23.1978C17.8463 23.1978 18.218 23.0987 18.218 22.9996V21.5873C18.218 20.8192 17.995 20.0511 17.5986 19.283C17.5738 19.2335 17.1774 19.2335 17.1526 19.283Z" fill="white"/>
</svg>
