<svg width="30" height="39" viewBox="0 0 30 39" fill="none" xmlns="http://www.w3.org/2000/svg">
<path d="M12.4156 38.2382C7.84687 38.2382 4.10156 33.9726 4.10156 28.7015V14.8077H4.89844V28.7015C4.89844 33.4546 8.27187 37.3241 12.4156 37.3241C16.5594 37.3241 19.9328 33.4546 19.9328 28.7015V24.4359H20.7297V28.732C20.7297 33.9726 17.0109 38.2382 12.4156 38.2382Z" fill="white"/>
<path d="M20.3047 22.8515C15.55 22.8515 11.6719 18.4335 11.6719 12.9491V5.66711C11.6719 3.56477 13.1594 1.85852 14.9922 1.85852V3.38196C13.9031 3.38196 13 4.4179 13 5.66711V12.9491C13 17.5804 16.2672 21.3281 20.3047 21.3281C24.3422 21.3281 27.6094 17.5804 27.6094 12.9491V5.66711C27.6094 4.4179 26.7063 3.38196 25.6172 3.38196V1.85852C27.45 1.85852 28.9375 3.56477 28.9375 5.66711V12.9491C28.9375 18.4335 25.0594 22.8515 20.3047 22.8515Z" fill="#F0F1EE"/>
<path d="M20.3045 23.2477C15.3639 23.2477 11.3264 18.6469 11.3264 12.9492V5.66721C11.3264 3.35159 12.9733 1.46252 14.992 1.46252H15.3108V3.74768H14.992C14.0889 3.74768 13.3452 4.60081 13.3452 5.63674V12.9188C13.3186 17.3672 16.453 20.9625 20.3045 20.9625C24.1561 20.9625 27.2639 17.3672 27.2639 12.9797V5.66721C27.2639 4.63127 26.5202 3.77815 25.617 3.77815H25.2983V1.49299H25.617C27.6358 1.49299 29.2827 3.38206 29.2827 5.69768V12.9797C29.2561 18.6164 25.2452 23.2477 20.3045 23.2477ZM14.6467 2.28518C13.1592 2.46799 11.9905 3.93049 11.9905 5.69768V12.9797C11.9905 18.2203 15.7092 22.486 20.278 22.486C24.8467 22.486 28.5655 18.2203 28.5655 12.9797V5.66721C28.5655 3.90002 27.3967 2.43752 25.9092 2.25471V3.0469C27.0249 3.22971 27.9014 4.35706 27.9014 5.69768V12.9797C27.9014 17.8242 24.4749 21.7547 20.2514 21.7547C16.028 21.7547 12.6811 17.7938 12.6811 12.9492V5.66721C12.6811 4.32659 13.5577 3.19924 14.6733 3.01643V2.28518H14.6467Z" fill="white"/>
<path d="M20.3045 18.6773C16.0811 18.6773 12.6545 14.7469 12.6545 9.90234H13.3186C13.3186 14.3203 16.453 17.9156 20.3045 17.9156C24.1561 17.9156 27.2639 14.3203 27.2639 9.93281H27.928C27.928 14.7469 24.528 18.6773 20.3045 18.6773Z" fill="white"/>
<path d="M15.7359 3.89995L14.8594 3.38198V1.85854L15.7359 1.37104C16.5328 0.914009 17.5156 1.58432 17.5156 2.62026C17.5156 3.68667 16.5328 4.35698 15.7359 3.89995Z" fill="white"/>
<path opacity="0.2" d="M15.7359 3.89995L14.8594 3.38198V1.85854L15.7359 1.37104C16.5328 0.914009 17.5156 1.58432 17.5156 2.62026C17.5156 3.68667 16.5328 4.35698 15.7359 3.89995Z" fill="white"/>
<path d="M16.267 4.41799C16.028 4.41799 15.7889 4.35706 15.5764 4.23518L14.5139 3.62581V1.64534L15.5764 1.03596C15.7889 0.914087 16.028 0.853149 16.267 0.853149C17.117 0.853149 17.8342 1.64534 17.8342 2.65081C17.8342 3.65627 17.1436 4.41799 16.267 4.41799ZM15.178 3.16877L15.8686 3.56487C16.0014 3.62581 16.1342 3.68674 16.267 3.68674C16.692 3.68674 17.1702 3.29065 17.1702 2.65081C17.1702 2.01096 16.7186 1.5844 16.267 1.5844C16.1342 1.5844 16.0014 1.61487 15.8686 1.70627L15.178 2.10237V3.16877Z" fill="white"/>
<path d="M24.714 3.9L25.5906 3.4125V1.88906L24.714 1.40156C23.8906 0.944527 22.9343 1.61484 22.9343 2.65078C22.9343 3.68671 23.8906 4.35703 24.714 3.9Z" fill="white"/>
<path opacity="0.2" d="M24.714 3.9L25.5906 3.4125V1.88906L24.714 1.40156C23.8906 0.944527 22.9343 1.61484 22.9343 2.65078C22.9343 3.68671 23.8906 4.35703 24.714 3.9Z" fill="white"/>
<path d="M24.1563 4.41794C23.3063 4.41794 22.5891 3.62576 22.5891 2.62029C22.5891 1.61482 23.2797 0.822632 24.1563 0.822632C24.3954 0.822632 24.6344 0.883569 24.8469 1.00544L25.9094 1.61482V3.59529L24.8469 4.20466C24.6344 4.35701 24.3954 4.41794 24.1563 4.41794ZM24.1563 1.58435C23.7313 1.58435 23.2532 1.98044 23.2532 2.62029C23.2532 3.26013 23.7313 3.65623 24.1563 3.65623C24.2891 3.65623 24.4219 3.62576 24.5547 3.53435L25.2454 3.13826V2.10232L24.5547 1.70623C24.4485 1.64529 24.3157 1.58435 24.1563 1.58435Z" fill="white"/>
<path d="M25.4579 19.9266C25.1657 19.4696 24.5813 19.4086 24.1563 19.7133C23.0141 20.5664 21.686 21.0235 20.3047 21.0235C18.95 21.0235 17.6485 20.5969 16.5063 19.7438C16.0813 19.4391 15.5235 19.5 15.2047 19.9571C14.886 20.4446 14.9922 21.1453 15.4438 21.4805C16.3469 22.1508 17.3297 22.6078 18.3657 22.8821C18.9766 23.0344 19.4016 23.6438 19.4016 24.375V28.2141C19.4016 28.7321 19.6938 29.1891 20.1454 29.2805C20.7563 29.4328 21.261 28.8844 21.261 28.2446V24.375C21.261 23.6742 21.686 23.0649 22.2969 22.8821C23.3329 22.6078 24.3157 22.1203 25.2188 21.45C25.6704 21.1149 25.7766 20.4141 25.4579 19.9266Z" fill="white"/>
<path d="M20.3313 29.7071C20.2516 29.7071 20.1453 29.7071 20.0656 29.6766C19.4813 29.5547 19.0563 28.9453 19.0563 28.2446V24.4055C19.0563 23.8571 18.7375 23.4 18.286 23.2782C17.1969 23.0039 16.1875 22.5164 15.2578 21.8156C14.9656 21.6024 14.7531 21.2367 14.7 20.8711C14.6469 20.475 14.7266 20.0789 14.9391 19.7438C15.1781 19.3782 15.55 19.1649 15.9485 19.1649C16.2141 19.1649 16.4531 19.2563 16.6922 19.4086C17.7813 20.2008 19.0297 20.6274 20.3047 20.6274C21.6063 20.6274 22.8813 20.2008 23.9703 19.3781C24.1828 19.2258 24.4485 19.1344 24.7141 19.1344C25.1125 19.1344 25.4844 19.3477 25.7235 19.6828C25.936 20.018 26.0156 20.4141 25.9625 20.8102C25.9094 21.2063 25.6969 21.5414 25.4047 21.7852C24.475 22.486 23.4656 23.0039 22.3766 23.2782C21.925 23.4 21.6063 23.8571 21.6063 24.375V28.2446C21.6063 28.6406 21.4735 29.0063 21.2344 29.2805C20.9953 29.5547 20.6766 29.7071 20.3313 29.7071ZM15.9485 19.9571C15.7625 19.9571 15.5766 20.0485 15.4703 20.2008C15.3641 20.3532 15.3375 20.536 15.3641 20.7188C15.3906 20.9016 15.4969 21.0539 15.6297 21.1758C16.4797 21.8156 17.436 22.2727 18.4453 22.5164C19.2156 22.6992 19.7469 23.461 19.7469 24.375V28.2141C19.7469 28.5492 19.9328 28.8539 20.225 28.9149C20.4375 28.9758 20.6235 28.8844 20.7828 28.7321C20.8891 28.6102 20.9688 28.4274 20.9688 28.2446V24.375C20.9688 23.4914 21.5 22.7297 22.2703 22.5164C23.2797 22.2422 24.236 21.7852 25.086 21.1453C25.2188 21.0539 25.325 20.8711 25.3516 20.6883C25.3781 20.5055 25.3516 20.3227 25.2453 20.1703C25.0594 19.8961 24.661 19.8352 24.3953 20.0485C23.2 20.9625 21.7922 21.4196 20.3578 21.4196C18.95 21.4196 17.5688 20.9625 16.3735 20.0789C16.2141 19.9875 16.0813 19.9571 15.9485 19.9571Z" fill="white"/>
<path d="M4.52661 18.6163C6.36037 18.6163 7.84692 16.9112 7.84692 14.8077C7.84692 12.7043 6.36037 10.9991 4.52661 10.9991C2.69285 10.9991 1.2063 12.7043 1.2063 14.8077C1.2063 16.9112 2.69285 18.6163 4.52661 18.6163Z" fill="#F0F1EE"/>
<path d="M4.52661 17.0929C5.62687 17.0929 6.5188 16.0698 6.5188 14.8077C6.5188 13.5457 5.62687 12.5226 4.52661 12.5226C3.42636 12.5226 2.53442 13.5457 2.53442 14.8077C2.53442 16.0698 3.42636 17.0929 4.52661 17.0929Z" fill="white"/>
<g opacity="0.5">
<path d="M4.52661 10.9991C2.6938 10.9991 1.2063 12.7054 1.2063 14.8077C1.2063 15.8741 1.57817 16.8187 2.18911 17.5195L6.89067 12.157C6.27974 11.4562 5.4563 10.9991 4.52661 10.9991Z" fill="white"/>
</g>
<path d="M4.52651 19.0125C2.50776 19.0125 0.887451 17.1235 0.887451 14.8078C0.887451 12.4922 2.53433 10.6031 4.52651 10.6031C6.54526 10.6031 8.19214 12.4922 8.19214 14.8078C8.19214 17.1235 6.5187 19.0125 4.52651 19.0125ZM4.52651 11.3953C2.87964 11.3953 1.55151 12.9188 1.55151 14.8078C1.55151 16.6969 2.87964 18.2203 4.52651 18.2203C6.17339 18.2203 7.50151 16.6969 7.50151 14.8078C7.50151 12.9188 6.17339 11.3953 4.52651 11.3953Z" fill="white"/>
<path d="M4.52651 17.4891C3.25151 17.4891 2.21558 16.3008 2.21558 14.8078C2.21558 13.3149 3.25151 12.1266 4.52651 12.1266C5.80151 12.1266 6.86401 13.3149 6.86401 14.8078C6.86401 16.3008 5.80151 17.4891 4.52651 17.4891ZM4.52651 12.9188C3.62339 12.9188 2.87964 13.7719 2.87964 14.8078C2.87964 15.8438 3.62339 16.6969 4.52651 16.6969C5.42964 16.6969 6.17339 15.8438 6.17339 14.8078C6.17339 13.7719 5.42964 12.9188 4.52651 12.9188Z" fill="white"/>
</svg>
