<svg width="24" height="25" viewBox="0 0 24 25" fill="none" xmlns="http://www.w3.org/2000/svg">
<g id="Component 1">
<path id="Vector (Stroke)" fill-rule="evenodd" clip-rule="evenodd" d="M3 5.5C2.44772 5.5 2 5.94772 2 6.5V18.5C2 19.0523 2.44772 19.5 3 19.5H21C21.5523 19.5 22 19.0523 22 18.5V6.5C22 5.94772 21.5523 5.5 21 5.5H3ZM0 6.5C0 4.84315 1.34315 3.5 3 3.5H21C22.6569 3.5 24 4.84315 24 6.5V18.5C24 20.1569 22.6569 21.5 21 21.5H3C1.34315 21.5 0 20.1569 0 18.5V6.5Z" fill="#1A1927"/>
<path id="Vector (Stroke)_2" fill-rule="evenodd" clip-rule="evenodd" d="M0 10.5C0 9.94772 0.447715 9.5 1 9.5H23C23.5523 9.5 24 9.94772 24 10.5C24 11.0523 23.5523 11.5 23 11.5H1C0.447715 11.5 0 11.0523 0 10.5Z" fill="#1A1927"/>
</g>
</svg>
