<svg width="18" height="19" viewBox="0 0 18 19" fill="none" xmlns="http://www.w3.org/2000/svg">
<path d="M15 17.4167C15.4142 17.4167 15.75 17.0623 15.75 16.625C15.75 16.1878 15.4142 15.8334 15 15.8334C14.5858 15.8334 14.25 16.1878 14.25 16.625C14.25 17.0623 14.5858 17.4167 15 17.4167Z" stroke="#009FE3" stroke-linecap="round" stroke-linejoin="round"/>
<path d="M7.75 17.4167C8.16421 17.4167 8.5 17.0623 8.5 16.625C8.5 16.1878 8.16421 15.8334 7.75 15.8334C7.33579 15.8334 7 16.1878 7 16.625C7 17.0623 7.33579 17.4167 7.75 17.4167Z" stroke="#009FE3" stroke-linecap="round" stroke-linejoin="round"/>
<path d="M3 1H5.54545L7.25091 11.7117C7.3091 12.08 7.46849 12.4109 7.70117 12.6464C7.93384 12.8818 8.22499 13.0069 8.52364 12.9997H14.7091C15.0077 13.0069 15.2989 12.8818 15.5316 12.6464C15.7642 12.4109 15.9236 12.08 15.9818 11.7117L17 4.9999H6.18182" stroke="#009FE3" stroke-linecap="round" stroke-linejoin="round"/>
</svg>
