<svg width="56" height="57" viewBox="0 0 56 57" fill="none" xmlns="http://www.w3.org/2000/svg">
<g clip-path="url(#clip0_92_2301)">
<path d="M22.735 6.72755L22.7382 48.9175L33.071 51.0343L33.0709 49.0567L33.0708 47.7382L33.0707 46.4198L33.0706 45.1014L33.0705 43.7829L33.0704 42.4645L33.0703 41.1461L33.0702 39.8276L33.0701 38.5092L33.07 37.1907L33.0699 35.8723L33.0698 34.5539L33.0697 33.2354L33.0696 31.917L33.0695 30.5986L33.0694 29.2801L33.0693 27.9617L33.0692 26.6433L33.0691 25.3248L33.069 24.0064L33.0689 22.688L33.0688 21.3695L33.0687 20.0511L33.0686 18.7326L33.0685 17.4142L33.0684 16.0958L33.0683 14.7773L33.0682 13.4589L33.0681 12.1405L33.0679 8.84438L22.735 6.72755ZM31.9279 11.9069L31.9381 13.2274L30.485 12.9297L30.4851 14.2481L31.9281 14.5437L31.9282 15.8622L30.4852 15.5666L30.4853 16.885L31.9283 17.1806L31.9284 18.4991L30.4854 18.2034L30.4855 19.5219L31.9386 19.8196L31.9387 21.138L30.4957 20.8424L30.4958 22.1608L31.9388 22.4564L31.9388 23.7749L29.1942 23.2126L29.1943 24.531L31.9289 25.0912L31.939 26.4117L30.4961 26.1161L30.4962 27.4346L31.9391 27.7302L31.9392 29.0486L30.4862 28.7509L30.4863 30.0694L31.9293 30.365L31.9294 31.6834L30.4864 31.3878L30.4865 32.7062L31.9395 33.0039L31.9396 34.3223L30.4967 34.0267L30.4968 35.3452L31.9397 35.6408L31.9398 36.9592L29.1952 36.3969L29.1953 37.7154L31.9298 38.2756L31.94 39.5961L30.4971 39.3005L30.4972 40.6189L31.9401 40.9145L31.9402 42.233L30.4872 41.9353L30.4873 43.2537L31.9302 43.5493L31.9303 44.8678L30.4874 44.5722L30.4875 45.8906L31.9405 46.1883L31.9406 47.5067L30.4876 47.209L30.4877 48.5275L31.9306 48.8231L31.9246 49.6397L23.8793 47.9863L23.8763 8.12631L31.9267 9.77554L31.9278 10.5884L29.1932 10.0282L29.1933 11.3467L31.9279 11.9069Z" fill="white"/>
<path d="M30.4867 47.2093L30.4868 48.5276L31.9296 48.8232L31.9295 47.5049L30.4867 47.2093Z" fill="white"/>
<path d="M30.4867 44.5721L30.4868 45.8904L31.9296 46.1859L31.9295 44.8677L30.4867 44.5721Z" fill="white"/>
<path d="M30.4872 41.9362L30.4873 43.2545L31.93 43.5501L31.9299 42.2318L30.4872 41.9362Z" fill="white"/>
<path d="M30.4867 39.2991L30.4868 40.6174L31.9296 40.913L31.9295 39.5947L30.4867 39.2991Z" fill="white"/>
<path d="M29.1947 36.3969L29.1948 37.7152L31.929 38.2753L31.9289 36.9571L29.1947 36.3969Z" fill="white"/>
<path d="M30.4857 34.025L30.4858 35.3433L31.9286 35.6388L31.9285 34.3205L30.4857 34.025Z" fill="white"/>
<path d="M30.4857 31.3878L30.4858 32.7061L31.9286 33.0016L31.9285 31.6833L30.4857 31.3878Z" fill="white"/>
<path d="M30.4853 28.7507L30.4854 30.069L31.9281 30.3645L31.928 29.0462L30.4853 28.7507Z" fill="white"/>
<path d="M30.4857 26.1148L30.4858 27.4331L31.9286 27.7287L31.9285 26.4104L30.4857 26.1148Z" fill="white"/>
<path d="M29.1937 23.2126L29.1938 24.5309L31.9281 25.091L31.928 23.7727L29.1937 23.2126Z" fill="white"/>
<path d="M30.4848 20.8406L30.4849 22.1589L31.9276 22.4545L31.9275 21.1362L30.4848 20.8406Z" fill="white"/>
<path d="M30.4848 18.2034L30.4849 19.5217L31.9276 19.8173L31.9275 18.499L30.4848 18.2034Z" fill="white"/>
<path d="M30.4843 15.5664L30.4844 16.8846L31.9271 17.1802L31.927 15.8619L30.4843 15.5664Z" fill="white"/>
<path d="M30.4848 12.9305L30.4849 14.2488L31.9276 14.5443L31.9275 13.226L30.4848 12.9305Z" fill="white"/>
<path d="M29.1928 10.0283L29.1929 11.3466L31.9271 11.9067L31.927 10.5884L29.1928 10.0283Z" fill="white"/>
<path d="M30.4872 47.2105L30.4873 48.5288L33.0703 49.058L33.0702 47.7397L30.4872 47.2105Z" fill="white"/>
<path d="M33.0703 45.1013L33.0704 46.4197L30.4872 45.8905L30.4871 44.5721L31.93 44.8677L33.0703 45.1013Z" fill="white"/>
<path d="M33.0703 42.4644L33.0704 43.7829L31.9301 43.5493L30.4872 43.2537L30.4871 41.9352L33.0703 42.4644Z" fill="white"/>
<path d="M30.4862 39.2993L30.4863 40.6176L33.0693 41.1467L33.0692 39.8284L30.4862 39.2993Z" fill="white"/>
<path d="M29.1942 36.397L29.1943 37.7153L33.0688 38.5091L33.0687 37.1908L29.1942 36.397Z" fill="white"/>
<path d="M30.4862 34.0263L30.4863 35.3446L33.0693 35.8738L33.0692 34.5555L30.4862 34.0263Z" fill="white"/>
<path d="M33.0693 31.917L33.0694 33.2354L30.4862 32.7062L30.4861 31.3878L31.9291 31.6834L33.0693 31.917Z" fill="white"/>
<path d="M33.0693 29.2801L33.0694 30.5986L31.9292 30.365L30.4862 30.0694L30.4861 28.7509L33.0693 29.2801Z" fill="white"/>
<path d="M30.4853 26.1149L30.4854 27.4332L33.0683 27.9624L33.0682 26.6441L30.4853 26.1149Z" fill="white"/>
<path d="M29.1933 23.2127L29.1934 24.531L33.0678 25.3247L33.0677 24.0064L29.1933 23.2127Z" fill="white"/>
<path d="M30.4843 20.8406L30.4844 22.1589L33.0673 22.6881L33.0672 21.3698L30.4843 20.8406Z" fill="white"/>
<path d="M33.0683 18.7326L33.0684 20.0511L30.4852 19.5219L30.4851 18.2034L31.9281 18.499L33.0683 18.7326Z" fill="white"/>
<path d="M33.0683 16.0957L33.0684 17.4141L31.9282 17.1805L30.4852 16.8849L30.4851 15.5665L33.0683 16.0957Z" fill="white"/>
<path d="M30.4843 12.9306L30.4844 14.2489L33.0673 14.7781L33.0672 13.4598L30.4843 12.9306Z" fill="white"/>
<path d="M29.1923 10.0284L29.1924 11.3467L33.0668 12.1404L33.0667 10.8221L29.1923 10.0284Z" fill="white"/>
</g>
<defs>
<clipPath id="clip0_92_2301">
<rect width="35.4217" height="43.4173" fill="white" transform="translate(0.456055 23.2581) rotate(-39.2133)"/>
</clipPath>
</defs>
</svg>
