<svg width="19" height="20" viewBox="0 0 19 20" fill="none" xmlns="http://www.w3.org/2000/svg">
<g id="vuesax/bold/notification-bing">
<g id="notification-bing">
<path id="Vector" d="M15.9842 11.1738L15.0897 9.68548C14.8917 9.36089 14.7176 8.73548 14.7176 8.35548V6.87506C14.7176 4.00131 12.3822 1.66589 9.51632 1.66589C6.64257 1.67381 4.30715 4.00131 4.30715 6.87506V8.34756C4.30715 8.72756 4.13299 9.35298 3.94299 9.67756L3.0484 11.1659C2.70799 11.7438 2.62882 12.4009 2.84257 12.9709C3.05632 13.5488 3.53924 14.008 4.17257 14.2138C5.02757 14.4988 5.89049 14.7046 6.76924 14.8551C6.85632 14.8709 6.9434 14.8788 7.03049 14.8946C7.14132 14.9105 7.26007 14.9263 7.37882 14.9421C7.58465 14.9738 7.79049 14.9976 8.00424 15.0134C8.50299 15.0609 9.00965 15.0846 9.51632 15.0846C10.0151 15.0846 10.5138 15.0609 11.0047 15.0134C11.1867 14.9976 11.3688 14.9817 11.543 14.958C11.6855 14.9421 11.828 14.9263 11.9705 14.9026C12.0576 14.8946 12.1447 14.8788 12.2317 14.863C13.1184 14.7205 13.9972 14.4988 14.8522 14.2138C15.4617 14.008 15.9288 13.5488 16.1505 12.963C16.3722 12.3692 16.3088 11.7201 15.9842 11.1738ZM10.0942 7.95964C10.0942 8.29214 9.82507 8.56131 9.49257 8.56131C9.16007 8.56131 8.8909 8.29214 8.8909 7.95964V5.50548C8.8909 5.17298 9.16007 4.90381 9.49257 4.90381C9.82507 4.90381 10.0942 5.17298 10.0942 5.50548V7.95964Z" fill="white" stroke="#009FE3"/>
<path id="Vector_2" d="M11.741 15.8843C11.4085 16.8026 10.5297 17.4597 9.50057 17.4597C8.87515 17.4597 8.25765 17.2063 7.82223 16.7551C7.5689 16.5176 7.3789 16.2009 7.26807 15.8763C7.37098 15.8922 7.4739 15.9001 7.58473 15.9159C7.76682 15.9397 7.95682 15.9634 8.14682 15.9793C8.59807 16.0188 9.05723 16.0426 9.5164 16.0426C9.96765 16.0426 10.4189 16.0188 10.8622 15.9793C11.0285 15.9634 11.1947 15.9555 11.3531 15.9318C11.4797 15.9159 11.6064 15.9001 11.741 15.8843Z" fill="white" stroke="#009FE3"/>
</g>
</g>
</svg>
